# xmcd
#
# Track frame offsets:
#	150
#	12382
#	23857
#	36290
#	51012
#	61592
#	75685
#	88304
#	101256
#	113705
#	127165
#	140840
#	153929
#	165492
#	178886
#
# Disc length: 2548 seconds
#
# Revision: 0
# Processed by: cddbd v1.5.2PL0 Copyright (c) Steve Scherf et al.
# Submitted via: EasyCDDAExtractor 9.0.0.1
#
DISCID=c309f20f
DTITLE=Various Artist - sonora matancera - 75 años - vol. 4
DYEAR=1900
DGENRE=
TTITLE0=celia cruz - chango ta veni
TTITLE1=celio gonzalez - estamos chao
TTITLE2=celio, caito, rogelio - no se lo diga a papa
TTITLE3=daniel santos - el moñito
TTITLE4=johnny lopez - linstead market
TTITLE5=laito sureda - novturnando
TTITLE6=leo marini - rico cha cha
TTITLE7=manuel leicea "puntillita" - can, caneito can
TTITLE8=miguelito valdes - zambele
TTITLE9=myrta silva - que corto es el amor
TTITLE10=nelson pinedo - el ermitaño
TTITLE11=olga chorens - yo soy esa
TTITLE12=rey chaney - quiero emborracharme
TTITLE13=rodolfo hoyos - esta es tu gracia
TTITLE14=olga y tony - linda caleñita
EXTD=
EXTT0=
EXTT1=
EXTT2=
EXTT3=
EXTT4=
EXTT5=
EXTT6=
EXTT7=
EXTT8=
EXTT9=
EXTT10=
EXTT11=
EXTT12=
EXTT13=
EXTT14=
PLAYORDER=
